<?xml version="1.0" encoding="utf-8"?>
<!-- Generator: Adobe Illustrator 26.3.1, SVG Export Plug-In . SVG Version: 6.00 Build 0)  -->
<svg version="1.1" id="Layer_1" xmlns="http://www.w3.org/2000/svg" xmlns:xlink="http://www.w3.org/1999/xlink" x="0px" y="0px"
	 viewBox="0 0 214.6 87.6" style="enable-background:new 0 0 214.6 87.6;" xml:space="preserve">
<style type="text/css">
	.st0{fill:#DA2128;}
	.st1{fill-rule:evenodd;clip-rule:evenodd;fill:#00427A;}
	.st2{fill:#414042;}
	.st3{fill:#808285;}
</style>
<g>
	<g>
		<g>
			<g>
				<g>
					<g>
						<g>
							<g>
								
									<ellipse transform="matrix(0.2501 -0.9682 0.9682 0.2501 27.7216 73.2953)" class="st0" cx="61.2" cy="18.8" rx="3.9" ry="3.9"/>
								
									<ellipse transform="matrix(0.6365 -0.7713 0.7713 0.6365 -2.0742 58.6394)" class="st0" cx="61.2" cy="31.5" rx="3.9" ry="3.9"/>
								<path class="st0" d="M65.1,44.3c0,2.2-1.8,3.9-3.9,3.9c-2.2,0-3.9-1.8-3.9-3.9c0-2.2,1.8-3.9,3.9-3.9
									C63.4,40.3,65.1,42.1,65.1,44.3z"/>
							</g>
						</g>
						<path class="st0" d="M73.9,14.8c2.2,0,3.9,1.8,3.9,3.9c0,2.2-1.8,3.9-3.9,3.9c-2.2,0-3.9-1.8-3.9-3.9
							C70,16.6,71.8,14.8,73.9,14.8z"/>
						<path class="st0" d="M86.7,14.8c2.2,0,3.9,1.8,3.9,3.9c0,2.2-1.8,3.9-3.9,3.9c-2.2,0-3.9-1.8-3.9-3.9
							C82.8,16.6,84.5,14.8,86.7,14.8z"/>
						<ellipse transform="matrix(0.231 -0.973 0.973 0.231 26.0798 96.2755)" class="st0" cx="73.9" cy="31.6" rx="3.9" ry="3.9"/>
						<path class="st0" d="M86.7,27.7c2.2,0,3.9,1.8,3.9,3.9c0,2.2-1.8,3.9-3.9,3.9c-2.2,0-3.9-1.8-3.9-3.9
							C82.8,29.5,84.5,27.7,86.7,27.7z"/>
						<path class="st0" d="M73.9,40.3c2.2,0,3.9,1.8,3.9,3.9c0,2.2-1.8,3.9-3.9,3.9c-2.2,0-3.9-1.8-3.9-3.9
							C70,42.1,71.8,40.3,73.9,40.3z"/>
						<path class="st0" d="M86.7,40.3c2.2,0,3.9,1.8,3.9,3.9c0,2.2-1.8,3.9-3.9,3.9c-2.2,0-3.9-1.8-3.9-3.9
							C82.8,42.1,84.5,40.3,86.7,40.3z"/>
					</g>
					<path class="st1" d="M48.8,12.5H14.9c-1.5,0-2.6,1.2-2.6,2.6v33.8c0,1.5,1.2,2.6,2.6,2.6h21.8l-0.1,10.7
						c0.1,1.3,1.7,0.8,2.3,0.2l8.3-10.9h1.6c1.5,0,2.6-1.2,2.6-2.6V15.2C51.4,13.7,50.2,12.5,48.8,12.5z M40.5,43.6l-8-5.8l-8,5.8
						l3.1-9.5l-8-5.8h9.9l3.1-9.5l3.1,9.5h9.9l-8.1,5.8L40.5,43.6z"/>
				</g>
			</g>
		</g>
		<g>
			<g>
				<g>
					<path class="st2" d="M111.2,39.1c-0.9-1.2-2.3-1.8-3.8-1.8c-2.7,0-4.5,2-4.5,4.6c0,2.6,1.8,4.6,4.5,4.6c1.4,0,2.8-0.7,3.8-1.8
						v5.2c-1.4,0.4-2.5,0.8-3.8,0.8c-2.3,0-4.6-0.9-6.3-2.5c-1.8-1.7-2.7-3.8-2.7-6.3c0-2.3,0.9-4.5,2.5-6.1c1.6-1.7,4-2.7,6.4-2.7
						c1.4,0,2.7,0.3,4,0.8V39.1z"/>
					<path class="st2" d="M117.4,40.7L117.4,40.7c0.8-1.4,2.2-2,3.7-2h0.8v3.9c-0.6-0.3-1.1-0.4-1.7-0.4c-2.2,0-2.8,1.5-2.8,3.4v4.6
						h-4V38.9h4V40.7z"/>
					<path class="st2" d="M126.8,34.5c0,1.1-0.9,2-2,2c-1.1,0-2-0.9-2-2c0-1.1,0.9-2,2-2C125.9,32.5,126.8,33.4,126.8,34.5z
						 M126.8,50.3h-4V38.9h4V50.3z"/>
					<path class="st2" d="M136.3,41.8c-0.6-0.3-1.5-0.6-2.2-0.6c-0.5,0-1.3,0.2-1.3,0.8c0,0.8,1.3,0.9,1.8,1
						c1.9,0.4,3.3,1.3,3.3,3.4c0,3-2.7,4.2-5.4,4.2c-1.6,0-3.2-0.5-4.6-1.3l1.5-2.8c0.8,0.6,2.2,1.2,3.2,1.2c0.5,0,1.3-0.2,1.3-0.9
						c0-0.9-1.3-0.9-2.5-1.3c-1.3-0.3-2.5-1-2.5-3c0-2.8,2.5-4,5-4c1.3,0,2.6,0.2,3.8,0.7L136.3,41.8z"/>
					<path class="st2" d="M143.6,34.5c0,1.1-0.9,2-2,2s-2-0.9-2-2c0-1.1,0.9-2,2-2S143.6,33.4,143.6,34.5z M143.6,50.3h-4V38.9h4
						V50.3z"/>
					<path class="st2" d="M153.2,41.8c-0.6-0.3-1.5-0.6-2.2-0.6c-0.5,0-1.3,0.2-1.3,0.8c0,0.8,1.3,0.9,1.8,1
						c1.9,0.4,3.3,1.3,3.3,3.4c0,3-2.7,4.2-5.4,4.2c-1.6,0-3.2-0.5-4.6-1.3l1.5-2.8c0.8,0.6,2.2,1.2,3.2,1.2c0.5,0,1.3-0.2,1.3-0.9
						c0-0.9-1.3-0.9-2.5-1.3c-1.3-0.3-2.5-1-2.5-3c0-2.8,2.5-4,5-4c1.3,0,2.6,0.2,3.8,0.7L153.2,41.8z"/>
					<path class="st2" d="M163.5,46.6h5.2v3.7h-9.6V33.5h4.4V46.6z"/>
					<path class="st2" d="M173.6,34.5c0,1.1-0.9,2-2,2c-1.1,0-2-0.9-2-2c0-1.1,0.9-2,2-2C172.7,32.5,173.6,33.4,173.6,34.5z
						 M173.6,50.3h-4V38.9h4V50.3z"/>
					<path class="st2" d="M179.8,40.3L179.8,40.3c1-1.4,2.1-1.8,3.7-1.8c3.1,0,4.3,1.9,4.3,4.7v7h-4v-5.6c0-1.1,0.2-3-1.8-3
						c-1.6,0-2.1,1.2-2.1,2.6v5.9h-4V38.9h4V40.3z"/>
					<path class="st2" d="M201.8,45.2h-8.5c0,1.6,0.9,2.5,2.5,2.5c0.9,0,1.5-0.3,1.9-1h3.9c-0.6,2.7-3.2,3.9-5.8,3.9
						c-3.8,0-6.6-2.1-6.6-6.1c0-3.8,2.6-6.1,6.3-6.1c4,0,6.2,2.4,6.2,6.3V45.2z M198,42.9c-0.2-1.1-1.2-1.8-2.3-1.8
						c-1.2,0-2.2,0.6-2.4,1.8H198z"/>
				</g>
				<g>
					<path class="st3" d="M108.6,22.8l4.2-10.4h4.8l-7.3,17.2h-3.5l-7.2-17.2h4.8L108.6,22.8z"/>
					<path class="st3" d="M128.7,24.3h-8.7c0,1.7,0.9,2.6,2.6,2.6c0.9,0,1.5-0.3,2-1.1h4c-0.7,2.8-3.3,4-5.9,4
						c-3.9,0-6.8-2.2-6.8-6.2c0-3.9,2.7-6.2,6.5-6.2c4,0,6.4,2.5,6.4,6.5V24.3z M124.8,22c-0.2-1.1-1.2-1.8-2.3-1.8
						c-1.2,0-2.2,0.6-2.5,1.8H124.8z"/>
					<path class="st3" d="M134.7,29.5h-4.1v-8.3h-1.3v-3.4h1.3v-3.5h4.1v3.5h2.3v3.4h-2.3V29.5z"/>
					<path class="st3" d="M150.2,24.3h-8.7c0,1.7,0.9,2.6,2.6,2.6c0.9,0,1.5-0.3,2-1.1h4c-0.7,2.8-3.3,4-5.9,4
						c-3.9,0-6.8-2.2-6.8-6.2c0-3.9,2.7-6.2,6.5-6.2c4,0,6.4,2.5,6.4,6.5V24.3z M146.3,22c-0.2-1.1-1.2-1.8-2.3-1.8
						c-1.2,0-2.2,0.6-2.5,1.8H146.3z"/>
					<path class="st3" d="M155.9,19.7L155.9,19.7c0.8-1.4,2.2-2.1,3.8-2.1h0.8v4c-0.6-0.3-1.1-0.4-1.8-0.4c-2.3,0-2.9,1.5-2.9,3.5
						v4.7h-4.1V17.8h4.1V19.7z"/>
					<path class="st3" d="M174.5,29.5h-4.1v-1.3h0c-0.7,1.2-2.2,1.7-3.5,1.7c-3.5,0-5.9-2.9-5.9-6.2s2.4-6.2,5.8-6.2
						c1.3,0,2.8,0.5,3.6,1.5v-1.1h4.1V29.5z M165.2,23.7c0,1.5,1,2.6,2.7,2.6c1.7,0,2.7-1.1,2.7-2.6c0-1.4-1-2.6-2.7-2.6
						C166.2,21,165.2,22.2,165.2,23.7z"/>
					<path class="st3" d="M180.9,19.3L180.9,19.3c1-1.4,2.2-1.9,3.8-1.9c3.1,0,4.4,2,4.4,4.8v7.2h-4.1v-5.7c0-1.1,0.2-3.1-1.9-3.1
						c-1.7,0-2.2,1.3-2.2,2.7v6.1h-4.1V17.8h4.1V19.3z"/>
					<path class="st3" d="M198.8,20.8c-0.6-0.3-1.5-0.6-2.2-0.6c-0.5,0-1.3,0.2-1.3,0.8c0,0.8,1.3,0.9,1.9,1
						c1.9,0.4,3.4,1.3,3.4,3.5c0,3.1-2.8,4.3-5.5,4.3c-1.7,0-3.3-0.5-4.7-1.3l1.5-2.9c0.8,0.6,2.3,1.2,3.3,1.2
						c0.5,0,1.3-0.3,1.3-0.9c0-0.9-1.3-1-2.6-1.3c-1.3-0.3-2.6-1-2.6-3.1c0-2.9,2.6-4.1,5.1-4.1c1.3,0,2.6,0.2,3.8,0.8L198.8,20.8z"
						/>
				</g>
			</g>
		</g>
	</g>
	<path class="st0" d="M194.3,57.9c-4.5,0-8.1,3.6-8.1,8.1c0,4.5,3.6,8.1,8.1,8.1c4.5,0,8.1-3.6,8.1-8.1
		C202.4,61.6,198.8,57.9,194.3,57.9z M196,72h-2.3v-10h-1.2v-2.1h3.5V72z"/>
	<g>
		<path class="st2" d="M60.5,59.8c1,0,1.8,0,2.6,0.5c2.3,1.1,3,3.8,3,6.2c0,3.5-1.3,6.5-5.3,6.5h-2.5V59.8H60.5z M60.9,70.4
			c2.1,0,2.6-2.5,2.6-4.1c0-1.3-0.3-3-1.3-3.8c-0.4-0.4-0.8-0.4-1.3-0.5L60.9,70.4L60.9,70.4z"/>
		<path class="st2" d="M67.9,72.8V59.8h2.6v13.1H67.9z"/>
		<path class="st2" d="M77.7,72.8l-0.5-2.2h-2.6l-0.5,2.2h-2.6l3.1-13.1h2.7l3.1,13.1H77.7z M76.8,68.6c-0.3-1.3-0.5-2.5-0.7-3.8
			c-0.1-0.6-0.2-1.2-0.2-1.7c-0.1,1.8-0.5,3.7-0.9,5.5H76.8z"/>
		<path class="st2" d="M81.5,72.8V59.8h2.6v10.6h2.7v2.4H81.5z"/>
		<path class="st2" d="M95.1,67.7c-0.5,0.4-1,0.7-1.6,0.7c-2,0-2.7-2.4-2.7-4.1c0-2.3,0.9-4.8,3.6-4.8c2.7,0,3.6,2.3,3.6,4.6
			c0,1.9-0.6,3.8-1.4,5.5c-0.1,0.3-0.3,0.5-0.4,0.8l-1.2,2.4h-2.5L95.1,67.7z M94.4,61.8c-1,0-1.1,1.6-1.1,2.3c0,0.6,0.1,2.1,1,2.1
			c0.9,0,1.1-1.6,1.1-2.3C95.5,63.3,95.3,61.8,94.4,61.8z"/>
		<path class="st2" d="M102.7,73.1c-2.2,0-3.7-1.6-3.7-3.8c0-0.8,0.2-1.8,0.7-2.5c0.4-0.5,0.9-0.7,1.5-1c-1.2-0.5-1.8-1.5-1.8-2.8
			c0-1.9,1.3-3.4,3.3-3.4c2,0,3.3,1.5,3.3,3.4c0,1.3-0.6,2.3-1.8,2.8c0.6,0.2,1.1,0.5,1.5,1c0.6,0.7,0.8,1.6,0.8,2.5
			C106.4,71.4,104.9,73.1,102.7,73.1z M102.7,67.1c-0.9,0-1.1,1.2-1.1,1.9c0,0.7,0.2,1.9,1.1,1.9c0.8,0,1.1-1.2,1.1-1.9
			C103.8,68.3,103.5,67.1,102.7,67.1z M102.6,61.6c-0.6,0-0.7,0.9-0.7,1.4c0,0.5,0.1,1.5,0.7,1.5c0.7,0,0.7-1,0.7-1.5
			C103.4,62.5,103.3,61.6,102.6,61.6z"/>
		<path class="st2" d="M111,73.1c-2.2,0-3.7-1.6-3.7-3.8c0-0.8,0.2-1.8,0.7-2.5c0.4-0.5,0.9-0.7,1.5-1c-1.2-0.5-1.8-1.5-1.8-2.8
			c0-1.9,1.3-3.4,3.3-3.4c2,0,3.3,1.5,3.3,3.4c0,1.3-0.6,2.3-1.8,2.8c0.6,0.2,1.1,0.5,1.5,1c0.6,0.7,0.8,1.6,0.8,2.5
			C114.7,71.4,113.1,73.1,111,73.1z M110.9,67.1c-0.9,0-1.1,1.2-1.1,1.9c0,0.7,0.2,1.9,1.1,1.9c0.8,0,1.1-1.2,1.1-1.9
			C112,68.3,111.8,67.1,110.9,67.1z M110.9,61.6c-0.6,0-0.7,0.9-0.7,1.4c0,0.5,0.1,1.5,0.7,1.5c0.7,0,0.7-1,0.7-1.5
			C111.6,62.5,111.5,61.6,110.9,61.6z"/>
		<path class="st2" d="M121.5,65.3v7.5h-1.6v-7.5h-0.9v-1.3h0.9v-2.5h1.6v2.5h0.9v1.3H121.5z"/>
		<path class="st2" d="M126.8,72.8V67c0-0.7,0-1.6-0.9-1.6c-1,0-1,1.1-1,1.8v5.7h-1.6V58.6h1.6v6.5c0.5-0.7,0.9-1.2,1.8-1.2
			c1.5,0,1.8,1.2,1.8,2.4v6.5H126.8z"/>
		<path class="st2" d="M131,68.8c0,0.8,0,2.8,1.1,2.8c0.9,0,1-1.1,1-1.7h1.5c0,0.6-0.1,1.2-0.3,1.8c-0.4,0.9-1.2,1.3-2.2,1.3
			c-2.5,0-2.7-2.6-2.7-4.5c0-1.8,0.2-4.5,2.6-4.5c2.5,0,2.6,3,2.6,4.8H131z M133.1,67.6c0-0.7,0-2.3-1-2.3c-1,0-1,1.6-1,2.3H133.1z"
			/>
		<path class="st2" d="M139.5,72.8v-5.7c0-0.8,0-1.8-0.9-1.8c-1,0-1,1.1-1,1.8v5.7H136v-8.8h1.6v1c0.5-0.7,0.9-1.2,1.8-1.2
			c1.5,0,1.8,1.2,1.8,2.4v6.5H139.5z"/>
		<path class="st0" d="M149,59.8c0.8,0,1.5,0,2.2,0.4c1.2,0.7,1.8,2.1,1.8,3.4c0,2.7-1.9,4-4.5,3.8v5.4h-2.6V59.8H149z M148.6,65.3
			c1.2,0,1.8-0.4,1.8-1.7c0-1-0.4-1.8-1.5-1.8h-0.5v3.4H148.6z"/>
		<path class="st0" d="M159,72.8l-2.3-6v6h-2.6V59.8h2.8c1,0,2,0.1,2.8,0.6c1,0.7,1.5,2,1.5,3.2c0,1.5-0.6,2.5-1.9,3.3l2.3,5.9H159z
			 M156.7,65.4c0.1,0,0.3,0,0.4,0c1.1,0,1.7-0.8,1.7-1.8c0-1.1-0.5-1.8-1.6-1.8h-0.5V65.4z"/>
		<path class="st0" d="M163.2,72.8V59.8h5.2v2.4h-2.6V65h2.3v2.5h-2.3v2.9h2.6v2.4H163.2z"/>
		<path class="st0" d="M175.3,62.7c-0.5-0.5-1.1-0.8-1.9-0.8c-0.8,0-1.3,0.5-1.3,1.3c0,2.3,3.9,2.2,3.9,5.9c0,2.3-1.4,4-3.7,4
			c-0.8,0-1.6-0.2-2.3-0.7v-2.5c0.6,0.4,1.2,0.7,1.9,0.7c0.9,0,1.5-0.5,1.5-1.5c0-0.2,0-0.5-0.1-0.7c-0.2-0.5-1-0.9-1.4-1.2
			c-1.5-1-2.4-2-2.4-3.9c0-2.1,1.2-3.9,3.4-3.9c0.9,0,1.5,0.2,2.3,0.6V62.7z"/>
		<path class="st0" d="M182.4,62.7c-0.5-0.5-1.1-0.8-1.9-0.8c-0.8,0-1.3,0.5-1.3,1.3c0,2.3,3.9,2.2,3.9,5.9c0,2.3-1.4,4-3.7,4
			c-0.8,0-1.6-0.2-2.3-0.7v-2.5c0.6,0.4,1.2,0.7,1.9,0.7c0.9,0,1.5-0.5,1.5-1.5c0-0.2,0-0.5-0.1-0.7c-0.2-0.5-1-0.9-1.4-1.2
			c-1.5-1-2.4-2-2.4-3.9c0-2.1,1.2-3.9,3.4-3.9c0.9,0,1.5,0.2,2.3,0.6V62.7z"/>
	</g>
</g>
</svg>
