<?xml version="1.0" encoding="UTF-8"?>
<svg xmlns="http://www.w3.org/2000/svg" width="4.15in" height="6.23in" viewBox="0 0 298.61 448.39">
  <defs>
    <style>
      .cls-1 {
        fill: #1c1c1a;
      }

      .cls-2 {
        fill: #fff;
        stroke: #1c1c1a;
        stroke-miterlimit: 10;
        stroke-width: 2px;
      }
    </style>
  </defs>
  <g id="Layer_1" data-name="Layer 1">
    <g>
      <path class="cls-1" d="M124.23,222.84h-10.04l-.92-6.52c-4.1,5.77-11.13,7.78-16.65,7.78-18.07,0-29.78-13.8-29.78-31.12s11.71-31.12,29.78-31.12c12.38,0,25.6,6.61,27.02,21.58h-15.56c-.5-5.1-5.52-8.2-11.79-8.2-10.04,0-13.89,8.87-13.89,17.73s3.85,17.73,13.89,17.73c7.7,0,12.88-3.6,13.72-9.03h-10.87v-11.54h25.09v32.71Z"/>
      <path class="cls-1" d="M151.84,178.17c13.47,0,22.92,9.95,22.92,23s-9.45,22.92-22.92,22.92-22.84-9.87-22.84-22.92,9.37-23,22.84-23Zm0,35.05c6.61,0,8.7-6.52,8.7-12.05s-2.09-12.13-8.7-12.13-8.62,6.61-8.62,12.13,2.01,12.05,8.62,12.05Z"/>
      <path class="cls-1" d="M180.2,163.11h14.22v59.72h-14.22v-59.72Z"/>
      <path class="cls-1" d="M205.05,188.62h-6.86v-9.2h6.86c0-12.46,4.35-16.31,16.48-16.31,2.26,0,4.6,.17,6.86,.25v10.04c-1.34-.17-2.59-.25-3.85-.25-3.26,0-5.27,.42-5.27,4.35v1.92h8.53v9.2h-8.53v34.21h-14.22v-34.21Z"/>
    </g>
    <g>
      <path class="cls-1" d="M37.31,274.33v22.25h-15.56v-22.25L0,236.86H17.65l11.88,24.26,11.88-24.26h17.65l-21.75,37.47Z"/>
      <path class="cls-1" d="M51.36,266.55c.25-5.69,2.93-9.37,6.78-11.63,3.85-2.17,8.87-3.01,13.8-3.01,10.29,0,20.24,2.26,20.24,14.55v18.99c0,3.68,0,7.7,1.67,11.12h-14.3c-.5-1.34-.67-2.68-.84-4.1-3.68,3.85-9.12,5.35-14.3,5.35-8.28,0-14.81-4.18-14.81-13.13,0-14.14,15.39-13.05,25.26-15.06,2.43-.5,3.76-1.34,3.76-4.02,0-3.26-3.93-4.52-6.86-4.52-3.93,0-6.44,1.76-7.11,5.44h-13.3Zm18.4,22.5c6.78,0,9.03-3.85,8.7-12.8-2.01,1.25-5.69,1.5-8.78,2.34-3.18,.75-5.86,2.09-5.86,5.52s2.76,4.94,5.94,4.94Z"/>
      <path class="cls-1" d="M99.05,253.17h13.8v5.94h.17c2.59-4.43,8.45-7.19,13.63-7.19,14.47,0,15.64,10.54,15.64,16.81v27.86h-14.22v-21c0-5.94,.67-11.96-7.11-11.96-5.35,0-7.7,4.52-7.7,9.29v23.67h-14.22v-43.41Z"/>
      <path class="cls-1" d="M149.24,236.86h14.22v30.78l12.97-14.47h16.48l-15.89,16.4,17.9,27.02h-17.15l-10.62-17.48-3.68,3.6v13.89h-14.22v-59.73Z"/>
      <path class="cls-1" d="M208.47,278.35c.25,5.94,3.68,9.87,9.7,9.87,3.43,0,6.78-1.59,8.11-4.77h13.3c-2.59,10.04-11.88,14.39-21.58,14.39-14.14,0-23.76-8.53-23.76-23.09,0-13.3,10.62-22.84,23.42-22.84,15.56,0,23.34,11.71,22.67,26.43h-31.87Zm17.65-7.95c-.25-4.85-3.68-8.87-8.45-8.87-5.02,0-8.37,3.6-9.2,8.87h17.65Z"/>
      <path class="cls-1" d="M258.74,278.35c.25,5.94,3.68,9.87,9.7,9.87,3.43,0,6.78-1.59,8.11-4.77h13.3c-2.59,10.04-11.88,14.39-21.58,14.39-14.14,0-23.76-8.53-23.76-23.09,0-13.3,10.62-22.84,23.42-22.84,15.56,0,23.34,11.71,22.67,26.43h-31.87Zm17.65-7.95c-.25-4.85-3.68-8.87-8.45-8.87-5.02,0-8.37,3.6-9.2,8.87h17.65Z"/>
    </g>
    <g>
      <path class="cls-1" d="M102.25,350.26c.33,7.03,4.68,9.28,11.29,9.28,4.68,0,9.54-1.67,9.54-6.11,0-5.27-8.53-6.27-17.15-8.7-8.53-2.43-17.48-6.27-17.48-17.23,0-13.05,13.13-18.15,24.34-18.15,11.88,0,23.84,5.77,23.92,19.24h-15.56c.25-5.44-4.85-7.19-9.62-7.19-3.35,0-7.53,1.17-7.53,5.1,0,4.6,8.62,5.44,17.32,7.86,8.62,2.43,17.32,6.44,17.32,17.23,0,15.14-12.88,19.99-26.01,19.99s-25.85-6.02-25.93-21.33h15.56Z"/>
      <path class="cls-1" d="M143.33,326.92h14.22v43.41h-14.22v-43.41Z"/>
      <path class="cls-1" d="M176.45,347.58l-13.8-20.66h15.73l6.11,10.37,6.11-10.37h15.06l-13.55,20.41,15.39,23h-15.73l-7.53-12.55-7.11,12.55h-15.73l15.06-22.75Z"/>
    </g>
    <circle class="cls-1" cx="150.44" cy="314.73" r="8.03"/>
  </g>
  <g id="Layer_2" data-name="Layer 2">
    <g>
      <circle class="cls-1" cx="149.96" cy="74.88" r="74.88"/>
      <path class="cls-2" d="M210.23,74.93c0-.83,.67-1.5,1.5-1.5h6.59c-.26-11.41-3.3-22.14-8.49-31.51l-5.63,3.25c-.24,.14-.49,.2-.75,.2-.52,0-1.02-.27-1.3-.75-.41-.72-.17-1.63,.55-2.05l5.63-3.25c-5.68-9.27-13.5-17.08-22.78-22.75l-3.27,5.67c-.28,.48-.78,.75-1.3,.75-.25,0-.51-.06-.75-.2-.72-.41-.96-1.33-.55-2.05l3.28-5.67c-9.48-5.23-20.32-8.27-31.87-8.45v6.6c0,.83-.67,1.5-1.5,1.5s-1.5-.67-1.5-1.5V6.64c-11.31,.3-21.94,3.35-31.24,8.5l3.24,5.61c.41,.72,.17,1.63-.55,2.05-.24,.14-.49,.2-.75,.2-.52,0-1.02-.27-1.3-.75l-3.23-5.6c-9.37,5.75-17.25,13.69-22.93,23.12,.03,.02,.07,.03,.1,.05l5.79,3.34c.72,.41,.96,1.33,.55,2.05-.28,.48-.78,.75-1.3,.75-.25,0-.51-.06-.75-.2l-5.79-3.34s-.06-.04-.09-.06c-5.04,9.27-7.99,19.85-8.24,31.08h6.59c.83,0,1.5,.67,1.5,1.5s-.67,1.5-1.5,1.5h-6.59c.23,11.31,3.2,21.96,8.29,31.28,.01,0,.03-.02,.04-.03l5.79-3.34c.72-.42,1.64-.17,2.05,.55,.41,.72,.17,1.63-.55,2.05l-5.79,3.34s-.03,.01-.05,.02c5.73,9.49,13.71,17.48,23.19,23.23h0l3.34-5.8c.41-.72,1.33-.96,2.05-.55,.72,.41,.96,1.33,.55,2.05l-3.34,5.79c9.22,5.05,19.74,8.02,30.92,8.32v-6.58c0-.83,.67-1.5,1.5-1.5s1.5,.67,1.5,1.5v6.6c11.42-.19,22.16-3.15,31.56-8.27-.01-.02-.03-.04-.05-.06l-3.34-5.79c-.41-.72-.17-1.63,.55-2.05,.72-.41,1.63-.17,2.05,.55l3.34,5.79s.02,.05,.03,.08c9.39-5.66,17.31-13.52,23.05-22.86l-5.57-3.22c-.72-.41-.96-1.33-.55-2.05s1.33-.96,2.05-.55l5.58,3.22c5.24-9.43,8.3-20.22,8.54-31.72h-6.59c-.83,0-1.5-.67-1.5-1.5Z"/>
      <polygon class="cls-1" points="155.09 80.72 156.42 88.45 156.42 88.45 156.42 88.45 149.47 84.8 142.52 88.46 143.85 80.72 138.22 75.24 138.22 75.24 138.22 75.24 145.99 74.11 149.47 67.06 152.94 74.11 160.71 75.23 155.09 80.72"/>
      <path class="cls-1" d="M126.92,89.63c-2.55,3.45-6.51,4.93-10.57,4.93-10.99,0-17.76-8.99-17.76-20.12,0-14.91,9.95-20.89,18.33-20.89,9.48,0,15.47,5.43,17.13,14.64h-10.99c-.42-2.85-2.71-4.88-5.42-4.88-7.86,0-7.6,8.72-7.6,11.4,0,3.67,1.41,10.09,8.38,10.09,2.66,0,5.36-1.43,5.94-4.33h-5.05v-8.39h15.21v21.55h-7.24l-.37-4Z"/>
      <path class="cls-1" d="M143.95,48.93l-13.76-24.73h13.32l6.52,14.42,6.8-14.42h13.21l-14.04,24.73v14.42h-12.06v-14.42Z"/>
      <path class="cls-1" d="M177.17,80.47c0,.99,.16,1.86,.44,2.58,.88,2.36,3.51,2.85,5.76,2.85,1.97,0,4.99-.66,4.99-3.56,0-2.03-1.7-2.58-8.44-4.5-6.2-1.75-13.27-3.45-13.27-11.35,0-9.05,7.73-12.94,15.79-12.94,8.5,0,16.01,3.23,16.34,12.77h-11.4c.22-1.48-.44-2.47-1.43-3.12-.99-.71-2.36-.99-3.56-.99-1.65,0-4.33,.44-4.33,2.63,.22,2.8,5.81,3.4,11.35,4.93,5.54,1.54,11.02,4.11,11.02,11.29,0,10.2-9.38,13.49-18.09,13.49-4.44,0-17.11-1.59-17.22-14.09h12.06Z"/>
      <path class="cls-1" d="M165.29,110.81l-8.99,8.04v-23.89h0s0-.07,0-.1c0-.49-.03-.97-.09-1.43l-1.6-.84-5.13-2.7-5.13,2.7-1.35,.71c-.07,.51-.11,1.03-.11,1.56,0,.04,0,.07,0,.1h0v23.89l-8.99-8.04c-.84,0-1.59,.5-1.91,1.28-.11,.26-.15,.52-.15,.79,0,.54,.21,1.07,.6,1.46l15.7,16.85c.38,.38,.92,.61,1.46,.61s1.08-.22,1.46-.61l15.7-16.85c.59-.59,.77-1.48,.45-2.25-.32-.77-1.08-1.28-1.91-1.28Z"/>
    </g>
    <g>
      <path class="cls-1" d="M26.93,447.88h-2.97l-4.89-18h-.06l-4.95,18h-2.97l-5.49-21.42h2.91l4.2,17.82h.06l4.8-17.82h3.09l4.74,17.82h.06l4.35-17.82h2.85l-5.73,21.42Z"/>
      <path class="cls-1" d="M34.92,426.46h14.79v2.4h-11.94v6.81h11.13v2.4h-11.13v7.41h12.03v2.4h-14.88v-21.42Z"/>
      <path class="cls-1" d="M76.7,445.21c-1.65,2.25-4.35,3.18-6.87,3.18-6.39,0-10.2-5.22-10.2-10.8,0-6.24,3.42-11.64,10.2-11.64,4.68,0,8.4,2.1,9.21,7.11h-2.85c-.57-3.24-3.18-4.71-6.36-4.71-5.19,0-7.35,4.5-7.35,9.09s2.58,8.55,7.35,8.55c4.41,0,7.05-3.09,6.87-6.99h-6.84v-2.4h9.39v11.28h-1.8l-.75-2.67Z"/>
      <path class="cls-1" d="M92.06,425.95c6.81,0,10.26,5.4,10.26,11.22s-3.45,11.22-10.26,11.22-10.26-5.4-10.26-11.22,3.45-11.22,10.26-11.22Zm0,20.04c5.22,0,7.41-4.5,7.41-8.82s-2.19-8.82-7.41-8.82-7.41,4.5-7.41,8.82,2.19,8.82,7.41,8.82Z"/>
      <path class="cls-1" d="M110.21,428.86h-7.14v-2.4h17.13v2.4h-7.14v19.02h-2.85v-19.02Z"/>
      <path class="cls-1" d="M138.86,439.12v8.76h-2.85v-8.76l-8.28-12.66h3.39l6.42,10.2,6.27-10.2h3.24l-8.19,12.66Z"/>
      <path class="cls-1" d="M158.06,425.95c6.81,0,10.26,5.4,10.26,11.22s-3.45,11.22-10.26,11.22-10.26-5.4-10.26-11.22,3.45-11.22,10.26-11.22Zm0,20.04c5.22,0,7.41-4.5,7.41-8.82s-2.19-8.82-7.41-8.82-7.41,4.5-7.41,8.82,2.19,8.82,7.41,8.82Z"/>
      <path class="cls-1" d="M188.45,440.14c0,5.4-3.09,8.25-8.43,8.25s-8.79-2.55-8.79-8.25v-13.68h2.85v13.68c0,3.78,2.16,5.85,5.94,5.85s5.58-2.07,5.58-5.85v-13.68h2.85v13.68Z"/>
      <path class="cls-1" d="M192.56,426.46h10.08c4.02,0,6.51,2.19,6.51,5.61,0,2.58-1.14,4.71-3.72,5.43v.06c2.49,.48,3,2.31,3.21,4.41,.18,2.1,.06,4.44,1.26,5.91h-3.18c-.81-.87-.36-3.18-.78-5.28-.3-2.1-.81-3.87-3.57-3.87h-6.96v9.15h-2.85v-21.42Zm8.79,9.87c2.67,0,4.95-.69,4.95-3.81,0-2.1-1.14-3.66-3.81-3.66h-7.08v7.47h5.94Z"/>
      <path class="cls-1" d="M220.55,426.46h7.77c1.89,0,4.38,0,5.67,.78,1.41,.84,2.52,2.37,2.52,4.47,0,2.28-1.2,3.99-3.18,4.8v.06c2.64,.54,4.08,2.52,4.08,5.16,0,3.15-2.25,6.15-6.51,6.15h-10.35v-21.42Zm2.85,9.21h5.7c3.24,0,4.56-1.17,4.56-3.42,0-2.97-2.1-3.39-4.56-3.39h-5.7v6.81Zm0,9.81h7.14c2.46,0,4.02-1.5,4.02-3.84,0-2.79-2.25-3.57-4.65-3.57h-6.51v7.41Z"/>
      <path class="cls-1" d="M246.47,426.46h3.15l8.37,21.42h-3.15l-2.34-6.45h-9.06l-2.4,6.45h-2.94l8.37-21.42Zm-2.13,12.57h7.26l-3.57-9.99h-.06l-3.63,9.99Z"/>
      <path class="cls-1" d="M274.7,432.91c-.6-3.03-3.03-4.56-6-4.56-5.1,0-7.26,4.2-7.26,8.67,0,4.89,2.16,8.97,7.29,8.97,3.75,0,5.91-2.64,6.18-6.18h2.85c-.54,5.34-3.87,8.58-9.27,8.58-6.66,0-9.9-4.92-9.9-11.16s3.54-11.28,10.14-11.28c4.47,0,8.16,2.4,8.82,6.96h-2.85Z"/>
      <path class="cls-1" d="M280.85,426.46h2.85v10.68l10.86-10.68h3.69l-9.03,8.64,9.39,12.78h-3.6l-7.74-10.83-3.57,3.33v7.5h-2.85v-21.42Z"/>
    </g>
  </g>
</svg>