<?xml version="1.0" encoding="UTF-8"?>
<svg xmlns="http://www.w3.org/2000/svg" width="10.5in" height="1.59in" viewBox="0 0 755.96 114.17">
  <defs>
    <style>
      .cls-1 {
        fill: #fff;
      }

      .cls-2 {
        fill: #1c1c1a;
      }

      .cls-3 {
        fill: none;
        stroke: #fff;
        stroke-linecap: round;
        stroke-miterlimit: 10;
        stroke-width: 2.45px;
      }
    </style>
  </defs>
  <g id="Layer_1" data-name="Layer 1">
    <g>
      <g>
        <path class="cls-2" d="M198.25,87.52h-10.04l-.92-6.52c-4.1,5.77-11.13,7.78-16.65,7.78-18.07,0-29.78-13.8-29.78-31.12s11.71-31.12,29.78-31.12c12.38,0,25.6,6.61,27.02,21.58h-15.56c-.5-5.1-5.52-8.2-11.79-8.2-10.04,0-13.89,8.87-13.89,17.73s3.85,17.73,13.89,17.73c7.7,0,12.88-3.6,13.72-9.03h-10.87v-11.54h25.09v32.71Z"/>
        <path class="cls-2" d="M225.86,42.85c13.47,0,22.92,9.95,22.92,23s-9.45,22.92-22.92,22.92-22.84-9.87-22.84-22.92,9.37-23,22.84-23Zm0,35.05c6.61,0,8.7-6.52,8.7-12.05s-2.09-12.13-8.7-12.13-8.62,6.61-8.62,12.13,2.01,12.05,8.62,12.05Z"/>
        <path class="cls-2" d="M254.22,27.79h14.22v59.72h-14.22V27.79Z"/>
        <path class="cls-2" d="M279.06,53.31h-6.86v-9.2h6.86c0-12.46,4.35-16.31,16.48-16.31,2.26,0,4.6,.17,6.86,.25v10.04c-1.34-.17-2.59-.25-3.85-.25-3.26,0-5.27,.42-5.27,4.35v1.92h8.53v9.2h-8.53v34.21h-14.22V53.31Z"/>
      </g>
      <g>
        <path class="cls-2" d="M358.6,65.27v22.25h-15.56v-22.25l-21.75-37.47h17.65l11.88,24.26,11.88-24.26h17.65l-21.75,37.47Z"/>
        <path class="cls-2" d="M372.66,57.49c.25-5.69,2.93-9.37,6.78-11.63,3.85-2.17,8.87-3.01,13.8-3.01,10.29,0,20.24,2.26,20.24,14.55v18.99c0,3.68,0,7.7,1.67,11.12h-14.3c-.5-1.34-.67-2.68-.84-4.1-3.68,3.85-9.12,5.35-14.3,5.35-8.28,0-14.81-4.18-14.81-13.13,0-14.14,15.39-13.05,25.26-15.06,2.43-.5,3.76-1.34,3.76-4.02,0-3.26-3.93-4.52-6.86-4.52-3.93,0-6.44,1.76-7.11,5.44h-13.3Zm18.4,22.5c6.78,0,9.03-3.85,8.7-12.8-2.01,1.25-5.69,1.5-8.78,2.34-3.18,.75-5.86,2.09-5.86,5.52s2.76,4.94,5.94,4.94Z"/>
        <path class="cls-2" d="M420.34,44.11h13.8v5.94h.17c2.59-4.43,8.45-7.19,13.63-7.19,14.47,0,15.64,10.54,15.64,16.81v27.86h-14.22v-21c0-5.94,.67-11.96-7.11-11.96-5.35,0-7.7,4.52-7.7,9.29v23.67h-14.22V44.11Z"/>
        <path class="cls-2" d="M470.53,27.79h14.22v30.78l12.97-14.47h16.48l-15.89,16.4,17.9,27.02h-17.15l-10.62-17.48-3.68,3.6v13.89h-14.22V27.79Z"/>
        <path class="cls-2" d="M529.76,69.28c.25,5.94,3.68,9.87,9.7,9.87,3.43,0,6.78-1.59,8.11-4.77h13.3c-2.59,10.04-11.88,14.39-21.58,14.39-14.14,0-23.76-8.53-23.76-23.09,0-13.3,10.62-22.84,23.42-22.84,15.56,0,23.34,11.71,22.67,26.43h-31.87Zm17.65-7.95c-.25-4.85-3.68-8.87-8.45-8.87-5.02,0-8.37,3.6-9.2,8.87h17.65Z"/>
        <path class="cls-2" d="M580.04,69.28c.25,5.94,3.68,9.87,9.7,9.87,3.43,0,6.78-1.59,8.11-4.77h13.3c-2.59,10.04-11.88,14.39-21.58,14.39-14.14,0-23.76-8.53-23.76-23.09,0-13.3,10.62-22.84,23.42-22.84,15.56,0,23.34,11.71,22.67,26.43h-31.87Zm17.65-7.95c-.25-4.85-3.68-8.87-8.45-8.87-5.02,0-8.37,3.6-9.2,8.87h17.65Z"/>
      </g>
      <g>
        <g>
          <path class="cls-2" d="M650.72,67.51c.33,7.03,4.68,9.28,11.29,9.28,4.68,0,9.54-1.67,9.54-6.11,0-5.27-8.53-6.27-17.15-8.7-8.53-2.43-17.48-6.27-17.48-17.23,0-13.05,13.13-18.15,24.34-18.15,11.88,0,23.84,5.77,23.92,19.24h-15.56c.25-5.44-4.85-7.19-9.62-7.19-3.35,0-7.53,1.17-7.53,5.1,0,4.6,8.62,5.44,17.32,7.86,8.62,2.43,17.32,6.44,17.32,17.23,0,15.14-12.88,19.99-26.01,19.99s-25.85-6.02-25.93-21.33h15.56Z"/>
          <path class="cls-2" d="M691.8,44.17h14.22v43.41h-14.22V44.17Z"/>
          <path class="cls-2" d="M724.93,64.84l-13.8-20.66h15.73l6.11,10.37,6.11-10.37h15.06l-13.55,20.41,15.39,23h-15.73l-7.53-12.55-7.11,12.55h-15.73l15.06-22.75Z"/>
        </g>
        <circle class="cls-2" cx="698.91" cy="31.99" r="8.03"/>
      </g>
    </g>
  </g>
  <g id="Layer_2" data-name="Layer 2">
    <g>
      <line class="cls-3" x1="56.78" y1="1.22" x2="56.78" y2="6.68"/>
      <line class="cls-3" x1="56.78" y1="107.49" x2="56.78" y2="112.95"/>
      <line class="cls-3" x1="1.22" y1="57.04" x2="6.68" y2="57.04"/>
      <line class="cls-3" x1="107.49" y1="57.04" x2="112.95" y2="57.04"/>
    </g>
    <g>
      <line class="cls-3" x1="28.92" y1="8.71" x2="31.64" y2="13.43"/>
      <line class="cls-3" x1="82.05" y1="100.74" x2="84.78" y2="105.46"/>
      <line class="cls-3" x1="8.71" y1="84.82" x2="13.43" y2="82.1"/>
      <line class="cls-3" x1="100.74" y1="31.69" x2="105.46" y2="28.96"/>
    </g>
    <g>
      <line class="cls-3" x1="8.71" y1="29.44" x2="13.43" y2="32.17"/>
      <line class="cls-3" x1="100.74" y1="82.57" x2="105.46" y2="85.3"/>
      <line class="cls-3" x1="29.27" y1="105.46" x2="31.99" y2="100.74"/>
      <line class="cls-3" x1="82.4" y1="13.43" x2="85.13" y2="8.71"/>
    </g>
    <polygon class="cls-1" points="61.4 61.76 62.49 68.07 62.49 68.07 62.49 68.07 56.82 65.09 51.14 68.07 52.23 61.76 47.64 57.29 47.64 57.29 47.64 57.29 53.98 56.36 56.81 50.62 59.65 56.36 65.99 57.28 61.4 61.76"/>
    <path class="cls-1" d="M38.41,69.03c-2.08,2.82-5.31,4.03-8.63,4.03-8.97,0-14.49-7.34-14.49-16.42,0-12.17,8.12-17.05,14.96-17.05,7.74,0,12.62,4.43,13.98,11.95h-8.97c-.34-2.33-2.21-3.98-4.42-3.98-6.42,0-6.2,7.11-6.2,9.31,0,3,1.15,8.23,6.84,8.23,2.17,0,4.38-1.16,4.85-3.53h-4.12v-6.85h12.41v17.58h-5.91l-.3-3.27Z"/>
    <path class="cls-1" d="M52.31,35.82l-11.23-20.18h10.87l5.32,11.77,5.55-11.77h10.78l-11.45,20.18v11.77h-9.84v-11.77Z"/>
    <path class="cls-1" d="M79.42,61.56c0,.81,.13,1.52,.36,2.1,.72,1.92,2.86,2.33,4.7,2.33,1.61,0,4.07-.54,4.07-2.91,0-1.66-1.39-2.1-6.89-3.67-5.06-1.43-10.83-2.82-10.83-9.26,0-7.38,6.31-10.56,12.88-10.56,6.93,0,13.06,2.64,13.33,10.42h-9.31c.18-1.21-.36-2.01-1.16-2.55-.81-.58-1.92-.81-2.91-.81-1.34,0-3.53,.36-3.53,2.15,.18,2.28,4.74,2.77,9.26,4.03,4.52,1.25,8.99,3.36,8.99,9.22,0,8.32-7.65,11.01-14.76,11.01-3.62,0-13.96-1.3-14.05-11.5h9.84Z"/>
    <path class="cls-1" d="M69.73,86.9l-7.34,6.56v-20.08h0s0-.05,0-.08c0-.4-.03-.79-.08-1.17l-1.31-.69-4.19-2.2-4.19,2.2-1.1,.58c-.06,.41-.09,.84-.09,1.28,0,.03,0,.06,0,.08h0v20.08l-7.34-6.56c-.68,0-1.3,.41-1.56,1.04-.09,.21-.13,.43-.13,.64,0,.44,.17,.87,.49,1.19l12.82,13.75c.31,.31,.75,.5,1.19,.5s.88-.18,1.19-.5l12.81-13.75c.48-.48,.63-1.21,.37-1.84-.26-.63-.88-1.04-1.56-1.04Z"/>
    <path class="cls-2" d="M98.51,82.95c-.57-.33-.76-1.05-.43-1.61,.33-.57,1.05-.76,1.61-.43l4.4,2.54c4.12-7.43,6.55-15.93,6.73-24.98h-5.21c-.65,0-1.18-.53-1.18-1.18s.53-1.18,1.18-1.18h5.21c-.2-8.99-2.61-17.44-6.69-24.82l-4.44,2.56c-.19,.11-.39,.16-.59,.16-.41,0-.81-.21-1.02-.59-.33-.57-.13-1.29,.43-1.61l4.43-2.56c-4.47-7.3-10.63-13.45-17.94-17.92l-2.58,4.47c-.22,.38-.62,.59-1.02,.59-.2,0-.4-.05-.59-.16-.57-.33-.76-1.05-.43-1.61l2.58-4.47c-7.46-4.12-16.01-6.52-25.1-6.66v5.21c0,.65-.53,1.18-1.18,1.18s-1.18-.53-1.18-1.18V3.48c-8.91,.24-17.28,2.65-24.61,6.71l2.55,4.42c.33,.57,.13,1.29-.43,1.61-.19,.11-.39,.16-.59,.16-.41,0-.81-.21-1.02-.59l-2.55-4.41c-7.38,4.53-13.59,10.79-18.06,18.21,.03,.01,.06,.02,.08,.04l4.56,2.63c.57,.33,.76,1.05,.43,1.61-.22,.38-.62,.59-1.02,.59-.2,0-.4-.05-.59-.16l-4.56-2.63s-.05-.03-.07-.05c-3.97,7.3-6.31,15.63-6.5,24.48h5.21c.65,0,1.18,.53,1.18,1.18s-.53,1.18-1.18,1.18H3.12c.18,8.91,2.53,17.29,6.54,24.64,.01,0,.02-.02,.03-.02l4.56-2.63c.56-.33,1.29-.13,1.61,.43,.33,.57,.13,1.29-.43,1.61l-4.56,2.63s-.03,.01-.04,.02c4.52,7.48,10.8,13.76,18.27,18.29h0l2.63-4.57c.33-.57,1.05-.76,1.61-.43,.57,.33,.76,1.05,.43,1.61l-2.63,4.56h0c7.26,3.98,15.54,6.33,24.35,6.57v-5.2c0-.65,.53-1.18,1.18-1.18s1.18,.53,1.18,1.18v5.21c8.99-.15,17.45-2.49,24.85-6.52-.01-.02-.02-.03-.03-.05l-2.63-4.56c-.33-.57-.13-1.29,.43-1.61,.56-.33,1.29-.13,1.61,.43l2.63,4.56s.02,.04,.03,.06c7.4-4.46,13.63-10.65,18.15-18l-4.39-2.53Z"/>
    <polygon class="cls-1" points="61.14 61.84 62.19 67.93 62.19 67.93 62.19 67.93 56.71 65.05 51.24 67.93 52.29 61.84 47.86 57.52 47.86 57.52 47.86 57.52 53.98 56.63 56.71 51.08 59.45 56.63 65.57 57.52 61.14 61.84"/>
    <path class="cls-1" d="M38.95,68.85c-2.01,2.72-5.13,3.89-8.33,3.89-8.65,0-13.99-7.08-13.99-15.85,0-11.74,7.83-16.45,14.44-16.45,7.47,0,12.18,4.27,13.49,11.53h-8.65c-.33-2.25-2.13-3.84-4.27-3.84-6.19,0-5.99,6.87-5.99,8.98,0,2.89,1.11,7.95,6.6,7.95,2.09,0,4.23-1.12,4.68-3.41h-3.98v-6.61h11.98v16.97h-5.7l-.29-3.15Z"/>
    <path class="cls-1" d="M52.37,36.81l-10.84-19.47h10.49l5.14,11.36,5.35-11.36h10.41l-11.05,19.47v11.36h-9.5v-11.36Z"/>
    <path class="cls-1" d="M78.53,61.64c0,.78,.13,1.47,.35,2.03,.69,1.86,2.76,2.25,4.53,2.25,1.55,0,3.93-.52,3.93-2.81,0-1.6-1.34-2.03-6.65-3.54-4.88-1.38-10.45-2.72-10.45-8.94,0-7.12,6.09-10.19,12.44-10.19,6.69,0,12.61,2.55,12.87,10.06h-8.98c.17-1.17-.35-1.94-1.12-2.46-.78-.56-1.86-.78-2.81-.78-1.3,0-3.41,.35-3.41,2.07,.17,2.2,4.58,2.68,8.94,3.89,4.36,1.21,8.68,3.24,8.68,8.89,0,8.03-7.38,10.62-14.25,10.62-3.5,0-13.47-1.25-13.56-11.1h9.5Z"/>
    <path class="cls-1" d="M69.18,86.11l-7.08,6.34v-19.38h0s0-.05,0-.08c0-.39-.03-.76-.07-1.13l-1.26-.66-4.04-2.13-4.04,2.13-1.06,.56c-.06,.4-.09,.81-.09,1.23,0,.03,0,.05,0,.08h0v19.38l-7.08-6.34c-.66,0-1.25,.4-1.51,1-.08,.2-.12,.41-.12,.62,0,.42,.16,.84,.48,1.15l12.37,13.27c.3,.3,.72,.48,1.15,.48s.85-.18,1.15-.48l12.37-13.27c.47-.46,.61-1.16,.35-1.77-.25-.61-.85-1-1.5-1Z"/>
  </g>
</svg>