<?xml version="1.0" encoding="UTF-8"?>
<svg xmlns="http://www.w3.org/2000/svg" width="10.58in" height="1.68in" viewBox="0 0 761.69 121.05">
  <defs>
    <style>
      .cls-1 {
        fill: #1c1c1a;
      }

      .cls-2 {
        fill: #fff;
        stroke: #1c1c1a;
        stroke-miterlimit: 10;
        stroke-width: 1.62px;
      }
    </style>
  </defs>
  <g id="Layer_1" data-name="Layer 1">
    <g>
      <g>
        <path class="cls-1" d="M203.98,91.14h-10.04l-.92-6.52c-4.1,5.77-11.13,7.78-16.65,7.78-18.07,0-29.78-13.8-29.78-31.12s11.71-31.12,29.78-31.12c12.38,0,25.6,6.61,27.02,21.58h-15.56c-.5-5.1-5.52-8.2-11.79-8.2-10.04,0-13.89,8.87-13.89,17.73s3.85,17.73,13.89,17.73c7.7,0,12.88-3.6,13.72-9.03h-10.87v-11.54h25.09v32.71Z"/>
        <path class="cls-1" d="M231.59,46.47c13.47,0,22.92,9.95,22.92,23s-9.45,22.92-22.92,22.92-22.84-9.87-22.84-22.92,9.37-23,22.84-23Zm0,35.05c6.61,0,8.7-6.52,8.7-12.05s-2.09-12.13-8.7-12.13-8.62,6.61-8.62,12.13,2.01,12.05,8.62,12.05Z"/>
        <path class="cls-1" d="M259.95,31.42h14.22v59.72h-14.22V31.42Z"/>
        <path class="cls-1" d="M284.8,56.93h-6.86v-9.2h6.86c0-12.46,4.35-16.31,16.48-16.31,2.26,0,4.6,.17,6.86,.25v10.04c-1.34-.17-2.59-.25-3.85-.25-3.26,0-5.27,.42-5.27,4.35v1.92h8.53v9.2h-8.53v34.21h-14.22V56.93Z"/>
      </g>
      <g>
        <path class="cls-1" d="M364.34,68.89v22.25h-15.56v-22.25l-21.75-37.47h17.65l11.88,24.26,11.88-24.26h17.65l-21.75,37.47Z"/>
        <path class="cls-1" d="M378.39,61.11c.25-5.69,2.93-9.37,6.78-11.63,3.85-2.17,8.87-3.01,13.8-3.01,10.29,0,20.24,2.26,20.24,14.55v18.99c0,3.68,0,7.7,1.67,11.12h-14.3c-.5-1.34-.67-2.68-.84-4.1-3.68,3.85-9.12,5.35-14.3,5.35-8.28,0-14.81-4.18-14.81-13.13,0-14.14,15.39-13.05,25.26-15.06,2.43-.5,3.76-1.34,3.76-4.02,0-3.26-3.93-4.52-6.86-4.52-3.93,0-6.44,1.76-7.11,5.44h-13.3Zm18.4,22.5c6.78,0,9.03-3.85,8.7-12.8-2.01,1.25-5.69,1.5-8.78,2.34-3.18,.75-5.86,2.09-5.86,5.52s2.76,4.94,5.94,4.94Z"/>
        <path class="cls-1" d="M426.08,47.73h13.8v5.94h.17c2.59-4.43,8.45-7.19,13.63-7.19,14.47,0,15.64,10.54,15.64,16.81v27.86h-14.22v-21c0-5.94,.67-11.96-7.11-11.96-5.35,0-7.7,4.52-7.7,9.29v23.67h-14.22V47.73Z"/>
        <path class="cls-1" d="M476.27,31.42h14.22v30.78l12.97-14.47h16.48l-15.89,16.4,17.9,27.02h-17.15l-10.62-17.48-3.68,3.6v13.89h-14.22V31.42Z"/>
        <path class="cls-1" d="M535.5,72.91c.25,5.94,3.68,9.87,9.7,9.87,3.43,0,6.78-1.59,8.11-4.77h13.3c-2.59,10.04-11.88,14.39-21.58,14.39-14.14,0-23.76-8.53-23.76-23.09,0-13.3,10.62-22.84,23.42-22.84,15.56,0,23.34,11.71,22.67,26.43h-31.87Zm17.65-7.95c-.25-4.85-3.68-8.87-8.45-8.87-5.02,0-8.37,3.6-9.2,8.87h17.65Z"/>
        <path class="cls-1" d="M585.77,72.91c.25,5.94,3.68,9.87,9.7,9.87,3.43,0,6.78-1.59,8.11-4.77h13.3c-2.59,10.04-11.88,14.39-21.58,14.39-14.14,0-23.76-8.53-23.76-23.09,0-13.3,10.62-22.84,23.42-22.84,15.56,0,23.34,11.71,22.67,26.43h-31.87Zm17.65-7.95c-.25-4.85-3.68-8.87-8.45-8.87-5.02,0-8.37,3.6-9.2,8.87h17.65Z"/>
      </g>
      <g>
        <g>
          <path class="cls-1" d="M656.46,71.13c.33,7.03,4.68,9.28,11.29,9.28,4.68,0,9.54-1.67,9.54-6.11,0-5.27-8.53-6.27-17.15-8.7-8.53-2.43-17.48-6.27-17.48-17.23,0-13.05,13.13-18.15,24.34-18.15,11.88,0,23.84,5.77,23.92,19.24h-15.56c.25-5.44-4.85-7.19-9.62-7.19-3.35,0-7.53,1.17-7.53,5.1,0,4.6,8.62,5.44,17.32,7.86,8.62,2.43,17.32,6.44,17.32,17.23,0,15.14-12.88,19.99-26.01,19.99s-25.85-6.02-25.93-21.33h15.56Z"/>
          <path class="cls-1" d="M697.53,47.79h14.22v43.41h-14.22V47.79Z"/>
          <path class="cls-1" d="M730.66,68.46l-13.8-20.66h15.73l6.11,10.37,6.11-10.37h15.06l-13.55,20.41,15.39,23h-15.73l-7.53-12.55-7.11,12.55h-15.73l15.06-22.75Z"/>
        </g>
        <circle class="cls-1" cx="704.64" cy="35.61" r="8.03"/>
      </g>
    </g>
  </g>
  <g id="Layer_2" data-name="Layer 2">
    <g>
      <circle class="cls-1" cx="60.53" cy="60.53" r="60.53"/>
      <path class="cls-2" d="M109.24,60.57c0-.67,.54-1.21,1.21-1.21h5.33c-.21-9.23-2.66-17.89-6.86-25.47l-4.55,2.63c-.19,.11-.4,.16-.61,.16-.42,0-.83-.22-1.05-.61-.33-.58-.14-1.32,.44-1.66l4.55-2.63c-4.59-7.49-10.91-13.81-18.41-18.39l-2.65,4.58c-.22,.39-.63,.61-1.05,.61-.21,0-.41-.05-.61-.16-.58-.33-.78-1.08-.44-1.66l2.65-4.59c-7.66-4.23-16.43-6.68-25.76-6.83v5.34c0,.67-.54,1.21-1.21,1.21s-1.21-.54-1.21-1.21V5.37c-9.15,.25-17.74,2.7-25.25,6.87l2.62,4.53c.34,.58,.14,1.32-.44,1.66-.19,.11-.4,.16-.61,.16-.42,0-.83-.22-1.05-.61l-2.61-4.53c-7.58,4.65-13.95,11.07-18.53,18.69,.03,.01,.06,.02,.08,.04l4.68,2.7c.58,.33,.78,1.08,.44,1.66-.22,.39-.63,.61-1.05,.61-.21,0-.41-.05-.61-.16l-4.68-2.7s-.05-.03-.07-.05c-4.08,7.49-6.46,16.04-6.66,25.13h5.33c.67,0,1.21,.54,1.21,1.21s-.54,1.21-1.21,1.21H5.27c.19,9.15,2.59,17.75,6.7,25.28,.01,0,.02-.02,.03-.02l4.68-2.7c.58-.34,1.32-.14,1.66,.44,.34,.58,.14,1.32-.44,1.66l-4.68,2.7s-.03,0-.04,.02c4.63,7.67,11.08,14.13,18.75,18.77h0l2.7-4.68c.34-.58,1.08-.78,1.66-.44,.58,.33,.78,1.08,.44,1.66l-2.7,4.68c7.45,4.08,15.96,6.48,24.99,6.72v-5.32c0-.67,.54-1.21,1.21-1.21s1.21,.54,1.21,1.21v5.34c9.23-.15,17.91-2.55,25.51-6.69-.01-.02-.03-.03-.04-.05l-2.7-4.68c-.33-.58-.14-1.32,.44-1.66,.58-.34,1.32-.14,1.66,.44l2.7,4.68s.02,.04,.03,.06c7.59-4.58,13.99-10.93,18.63-18.48l-4.5-2.6c-.58-.33-.78-1.08-.44-1.66s1.08-.78,1.66-.44l4.51,2.6c4.23-7.62,6.71-16.35,6.9-25.64h-5.33c-.67,0-1.21-.54-1.21-1.21Z"/>
      <polygon class="cls-1" points="64.67 65.24 65.75 71.5 65.75 71.5 65.75 71.5 60.13 68.54 54.51 71.5 55.58 65.24 51.04 60.81 51.04 60.81 51.04 60.81 57.32 59.9 60.13 54.21 62.94 59.9 69.22 60.81 64.67 65.24"/>
      <path class="cls-1" d="M41.9,72.44c-2.06,2.79-5.26,3.99-8.55,3.99-8.88,0-14.36-7.27-14.36-16.26,0-12.05,8.04-16.88,14.82-16.88,7.66,0,12.5,4.39,13.85,11.83h-8.88c-.34-2.3-2.19-3.94-4.38-3.94-6.36,0-6.15,7.05-6.15,9.22,0,2.97,1.14,8.15,6.78,8.15,2.15,0,4.34-1.15,4.8-3.5h-4.08v-6.78h12.29v17.42h-5.85l-.3-3.24Z"/>
      <path class="cls-1" d="M55.67,39.55l-11.12-19.99h10.77l5.27,11.66,5.49-11.66h10.68l-11.34,19.99v11.66h-9.75v-11.66Z"/>
      <path class="cls-1" d="M82.52,65.04c0,.8,.13,1.51,.35,2.08,.71,1.91,2.84,2.3,4.65,2.3,1.6,0,4.03-.53,4.03-2.88,0-1.64-1.37-2.08-6.82-3.63-5.01-1.42-10.72-2.79-10.72-9.17,0-7.31,6.25-10.46,12.76-10.46,6.87,0,12.94,2.61,13.21,10.33h-9.22c.18-1.2-.35-1.99-1.15-2.53-.8-.58-1.91-.8-2.88-.8-1.33,0-3.5,.35-3.5,2.13,.18,2.26,4.7,2.75,9.17,3.99,4.48,1.24,8.91,3.32,8.91,9.13,0,8.24-7.58,10.9-14.62,10.9-3.59,0-13.83-1.29-13.92-11.39h9.75Z"/>
      <path class="cls-1" d="M72.92,89.57l-7.27,6.5v-19.31h0s0-.05,0-.08c0-.4-.03-.78-.08-1.16l-1.3-.68-4.15-2.18-4.15,2.18-1.09,.57c-.06,.41-.09,.83-.09,1.26,0,.03,0,.06,0,.08h0v19.31l-7.27-6.5c-.68,0-1.29,.41-1.55,1.03-.08,.21-.12,.42-.12,.64,0,.43,.17,.86,.49,1.18l12.69,13.62c.31,.31,.74,.49,1.18,.49s.87-.18,1.18-.49l12.69-13.62c.48-.48,.62-1.19,.36-1.82-.26-.63-.87-1.03-1.54-1.03Z"/>
    </g>
  </g>
</svg>