<?xml version="1.0" encoding="UTF-8"?>
<svg xmlns="http://www.w3.org/2000/svg" width="4.15in" height="6.25in" viewBox="0 0 298.61 449.92">
  <defs>
    <style>
      .cls-1 {
        fill: #fff;
      }

      .cls-2 {
        fill: #1c1c1a;
      }
    </style>
  </defs>
  <g id="Layer_1" data-name="Layer 1">
    <g>
      <path class="cls-2" d="M124.23,224.37h-10.04l-.92-6.52c-4.1,5.77-11.13,7.78-16.65,7.78-18.07,0-29.78-13.8-29.78-31.12s11.71-31.12,29.78-31.12c12.38,0,25.6,6.61,27.02,21.58h-15.56c-.5-5.1-5.52-8.2-11.79-8.2-10.04,0-13.89,8.87-13.89,17.73s3.85,17.73,13.89,17.73c7.7,0,12.88-3.6,13.72-9.03h-10.87v-11.54h25.09v32.71Z"/>
      <path class="cls-2" d="M151.84,179.7c13.47,0,22.92,9.95,22.92,23s-9.45,22.92-22.92,22.92-22.84-9.87-22.84-22.92,9.37-23,22.84-23Zm0,35.05c6.61,0,8.7-6.52,8.7-12.05s-2.09-12.13-8.7-12.13-8.62,6.61-8.62,12.13,2.01,12.05,8.62,12.05Z"/>
      <path class="cls-2" d="M180.2,164.65h14.22v59.72h-14.22v-59.72Z"/>
      <path class="cls-2" d="M205.05,190.16h-6.86v-9.2h6.86c0-12.46,4.35-16.31,16.48-16.31,2.26,0,4.6,.17,6.86,.25v10.04c-1.34-.17-2.59-.25-3.85-.25-3.26,0-5.27,.42-5.27,4.35v1.92h8.53v9.2h-8.53v34.21h-14.22v-34.21Z"/>
    </g>
    <g>
      <path class="cls-2" d="M37.31,275.87v22.25h-15.56v-22.25L0,238.39H17.65l11.88,24.26,11.88-24.26h17.65l-21.75,37.47Z"/>
      <path class="cls-2" d="M51.36,268.09c.25-5.69,2.93-9.37,6.78-11.63,3.85-2.17,8.87-3.01,13.8-3.01,10.29,0,20.24,2.26,20.24,14.55v18.99c0,3.68,0,7.7,1.67,11.12h-14.3c-.5-1.34-.67-2.68-.84-4.1-3.68,3.85-9.12,5.35-14.3,5.35-8.28,0-14.81-4.18-14.81-13.13,0-14.14,15.39-13.05,25.26-15.06,2.43-.5,3.76-1.34,3.76-4.02,0-3.26-3.93-4.52-6.86-4.52-3.93,0-6.44,1.76-7.11,5.44h-13.3Zm18.4,22.5c6.78,0,9.03-3.85,8.7-12.8-2.01,1.25-5.69,1.5-8.78,2.34-3.18,.75-5.86,2.09-5.86,5.52s2.76,4.94,5.94,4.94Z"/>
      <path class="cls-2" d="M99.05,254.7h13.8v5.94h.17c2.59-4.43,8.45-7.19,13.63-7.19,14.47,0,15.64,10.54,15.64,16.81v27.86h-14.22v-21c0-5.94,.67-11.96-7.11-11.96-5.35,0-7.7,4.52-7.7,9.29v23.67h-14.22v-43.41Z"/>
      <path class="cls-2" d="M149.24,238.39h14.22v30.78l12.97-14.47h16.48l-15.89,16.4,17.9,27.02h-17.15l-10.62-17.48-3.68,3.6v13.89h-14.22v-59.73Z"/>
      <path class="cls-2" d="M208.47,279.88c.25,5.94,3.68,9.87,9.7,9.87,3.43,0,6.78-1.59,8.11-4.77h13.3c-2.59,10.04-11.88,14.39-21.58,14.39-14.14,0-23.76-8.53-23.76-23.09,0-13.3,10.62-22.84,23.42-22.84,15.56,0,23.34,11.71,22.67,26.43h-31.87Zm17.65-7.95c-.25-4.85-3.68-8.87-8.45-8.87-5.02,0-8.37,3.6-9.2,8.87h17.65Z"/>
      <path class="cls-2" d="M258.74,279.88c.25,5.94,3.68,9.87,9.7,9.87,3.43,0,6.78-1.59,8.11-4.77h13.3c-2.59,10.04-11.88,14.39-21.58,14.39-14.14,0-23.76-8.53-23.76-23.09,0-13.3,10.62-22.84,23.42-22.84,15.56,0,23.34,11.71,22.67,26.43h-31.87Zm17.65-7.95c-.25-4.85-3.68-8.87-8.45-8.87-5.02,0-8.37,3.6-9.2,8.87h17.65Z"/>
    </g>
    <g>
      <path class="cls-2" d="M102.25,351.79c.33,7.03,4.68,9.28,11.29,9.28,4.68,0,9.54-1.67,9.54-6.11,0-5.27-8.53-6.27-17.15-8.7-8.53-2.43-17.48-6.27-17.48-17.23,0-13.05,13.13-18.15,24.34-18.15,11.88,0,23.84,5.77,23.92,19.24h-15.56c.25-5.44-4.85-7.19-9.62-7.19-3.35,0-7.53,1.17-7.53,5.1,0,4.6,8.62,5.44,17.32,7.86,8.62,2.43,17.32,6.44,17.32,17.23,0,15.14-12.88,19.99-26.01,19.99s-25.85-6.02-25.93-21.33h15.56Z"/>
      <path class="cls-2" d="M143.33,328.45h14.22v43.41h-14.22v-43.41Z"/>
      <path class="cls-2" d="M176.45,349.11l-13.8-20.66h15.73l6.11,10.37,6.11-10.37h15.06l-13.55,20.41,15.39,23h-15.73l-7.53-12.55-7.11,12.55h-15.73l15.06-22.75Z"/>
    </g>
    <circle class="cls-2" cx="150.44" cy="316.27" r="8.03"/>
  </g>
  <g id="Layer_2" data-name="Layer 2">
    <g>
      <path class="cls-2" d="M26.93,449.41h-2.97l-4.89-18h-.06l-4.95,18h-2.97l-5.49-21.42h2.91l4.2,17.82h.06l4.8-17.82h3.09l4.74,17.82h.06l4.35-17.82h2.85l-5.73,21.42Z"/>
      <path class="cls-2" d="M34.92,427.99h14.79v2.4h-11.94v6.81h11.13v2.4h-11.13v7.41h12.03v2.4h-14.88v-21.42Z"/>
      <path class="cls-2" d="M76.7,446.74c-1.65,2.25-4.35,3.18-6.87,3.18-6.39,0-10.2-5.22-10.2-10.8,0-6.24,3.42-11.64,10.2-11.64,4.68,0,8.4,2.1,9.21,7.11h-2.85c-.57-3.24-3.18-4.71-6.36-4.71-5.19,0-7.35,4.5-7.35,9.09s2.58,8.55,7.35,8.55c4.41,0,7.05-3.09,6.87-6.99h-6.84v-2.4h9.39v11.28h-1.8l-.75-2.67Z"/>
      <path class="cls-2" d="M92.06,427.48c6.81,0,10.26,5.4,10.26,11.22s-3.45,11.22-10.26,11.22-10.26-5.4-10.26-11.22,3.45-11.22,10.26-11.22Zm0,20.04c5.22,0,7.41-4.5,7.41-8.82s-2.19-8.82-7.41-8.82-7.41,4.5-7.41,8.82,2.19,8.82,7.41,8.82Z"/>
      <path class="cls-2" d="M110.21,430.39h-7.14v-2.4h17.13v2.4h-7.14v19.02h-2.85v-19.02Z"/>
      <path class="cls-2" d="M138.86,440.65v8.76h-2.85v-8.76l-8.28-12.66h3.39l6.42,10.2,6.27-10.2h3.24l-8.19,12.66Z"/>
      <path class="cls-2" d="M158.06,427.48c6.81,0,10.26,5.4,10.26,11.22s-3.45,11.22-10.26,11.22-10.26-5.4-10.26-11.22,3.45-11.22,10.26-11.22Zm0,20.04c5.22,0,7.41-4.5,7.41-8.82s-2.19-8.82-7.41-8.82-7.41,4.5-7.41,8.82,2.19,8.82,7.41,8.82Z"/>
      <path class="cls-2" d="M188.45,441.67c0,5.4-3.09,8.25-8.43,8.25s-8.79-2.55-8.79-8.25v-13.68h2.85v13.68c0,3.78,2.16,5.85,5.94,5.85s5.58-2.07,5.58-5.85v-13.68h2.85v13.68Z"/>
      <path class="cls-2" d="M192.56,427.99h10.08c4.02,0,6.51,2.19,6.51,5.61,0,2.58-1.14,4.71-3.72,5.43v.06c2.49,.48,3,2.31,3.21,4.41,.18,2.1,.06,4.44,1.26,5.91h-3.18c-.81-.87-.36-3.18-.78-5.28-.3-2.1-.81-3.87-3.57-3.87h-6.96v9.15h-2.85v-21.42Zm8.79,9.87c2.67,0,4.95-.69,4.95-3.81,0-2.1-1.14-3.66-3.81-3.66h-7.08v7.47h5.94Z"/>
      <path class="cls-2" d="M220.55,427.99h7.77c1.89,0,4.38,0,5.67,.78,1.41,.84,2.52,2.37,2.52,4.47,0,2.28-1.2,3.99-3.18,4.8v.06c2.64,.54,4.08,2.52,4.08,5.16,0,3.15-2.25,6.15-6.51,6.15h-10.35v-21.42Zm2.85,9.21h5.7c3.24,0,4.56-1.17,4.56-3.42,0-2.97-2.1-3.39-4.56-3.39h-5.7v6.81Zm0,9.81h7.14c2.46,0,4.02-1.5,4.02-3.84,0-2.79-2.25-3.57-4.65-3.57h-6.51v7.41Z"/>
      <path class="cls-2" d="M246.47,427.99h3.15l8.37,21.42h-3.15l-2.34-6.45h-9.06l-2.4,6.45h-2.94l8.37-21.42Zm-2.13,12.57h7.26l-3.57-9.99h-.06l-3.63,9.99Z"/>
      <path class="cls-2" d="M274.7,434.44c-.6-3.03-3.03-4.56-6-4.56-5.1,0-7.26,4.2-7.26,8.67,0,4.89,2.16,8.97,7.29,8.97,3.75,0,5.91-2.64,6.18-6.18h2.85c-.54,5.34-3.87,8.58-9.27,8.58-6.66,0-9.9-4.92-9.9-11.16s3.54-11.28,10.14-11.28c4.47,0,8.16,2.4,8.82,6.96h-2.85Z"/>
      <path class="cls-2" d="M280.85,427.99h2.85v10.68l10.86-10.68h3.69l-9.03,8.64,9.39,12.78h-3.6l-7.74-10.83-3.57,3.33v7.5h-2.85v-21.42Z"/>
    </g>
    <g>
      <path class="cls-2" d="M205.74,106.27c-.76-.44-1.01-1.4-.58-2.16,.44-.76,1.4-1.01,2.16-.58l5.88,3.4c5.52-9.93,8.75-21.3,9-33.4h-6.96c-.87,0-1.58-.71-1.58-1.58s.71-1.58,1.58-1.58h6.96c-.27-12.02-3.48-23.31-8.95-33.19l-5.94,3.43c-.25,.14-.52,.21-.79,.21-.55,0-1.08-.28-1.37-.79-.44-.76-.18-1.72,.58-2.16l5.93-3.42c-5.98-9.76-14.21-17.99-23.98-23.95l-3.45,5.97c-.29,.51-.82,.79-1.37,.79-.27,0-.54-.07-.79-.21-.76-.44-1.01-1.4-.58-2.16l3.45-5.98C174.97,3.4,163.54,.2,151.39,0V6.97c0,.87-.71,1.58-1.58,1.58s-1.58-.71-1.58-1.58V.01c-11.92,.32-23.11,3.54-32.9,8.97l3.41,5.91c.44,.76,.18,1.72-.58,2.16-.25,.14-.52,.21-.79,.21-.55,0-1.08-.28-1.37-.79l-3.41-5.9c-9.87,6.05-18.17,14.42-24.15,24.35,.04,.02,.07,.03,.11,.05l6.1,3.52c.76,.44,1.01,1.4,.58,2.16-.29,.51-.82,.79-1.37,.79-.27,0-.54-.07-.79-.21l-6.1-3.52s-.06-.04-.09-.07c-5.31,9.77-8.43,20.9-8.7,32.73h6.96c.87,0,1.58,.71,1.58,1.58s-.71,1.58-1.58,1.58h-6.96c.25,11.92,3.38,23.12,8.74,32.94,.02,0,.03-.02,.04-.03l6.1-3.52c.75-.44,1.72-.18,2.16,.58,.44,.76,.18,1.72-.58,2.16l-6.1,3.52s-.04,.02-.05,.03c6.04,9.99,14.44,18.4,24.42,24.45h0l3.52-6.1c.44-.76,1.4-1.01,2.16-.58,.76,.44,1.01,1.4,.58,2.16l-3.52,6.1h0c9.71,5.32,20.78,8.46,32.56,8.78v-6.95c0-.87,.71-1.58,1.58-1.58s1.58,.71,1.58,1.58v6.97c12.02-.19,23.33-3.33,33.22-8.72-.02-.02-.03-.04-.05-.07l-3.52-6.1c-.44-.76-.18-1.72,.58-2.16,.75-.44,1.72-.18,2.16,.58l3.52,6.1s.02,.06,.04,.08c9.89-5.96,18.23-14.24,24.27-24.07l-5.87-3.39Z"/>
      <polygon class="cls-1" points="155.77 78.04 157.17 86.19 157.17 86.19 157.17 86.19 149.85 82.34 142.53 86.19 143.93 78.04 138.01 72.27 138.01 72.27 138.01 72.27 146.19 71.08 149.85 63.66 153.51 71.08 161.69 72.27 155.77 78.04"/>
      <path class="cls-1" d="M126.1,87.42c-2.69,3.64-6.86,5.2-11.13,5.2-11.57,0-18.7-9.47-18.7-21.19,0-15.7,10.48-22,19.3-22,9.98,0,16.29,5.72,18.04,15.41h-11.57c-.44-3-2.85-5.14-5.7-5.14-8.28,0-8.01,9.18-8.01,12.01,0,3.87,1.48,10.62,8.83,10.62,2.8,0,5.65-1.5,6.25-4.56h-5.32v-8.83h16.01v22.69h-7.62l-.38-4.21Z"/>
      <path class="cls-1" d="M144.04,44.57l-14.49-26.04h14.03l6.87,15.18,7.16-15.18h13.91l-14.78,26.04v15.18h-12.7v-15.18Z"/>
      <path class="cls-1" d="M179.02,77.78c0,1.04,.17,1.96,.46,2.71,.92,2.48,3.69,3,6.06,3,2.08,0,5.25-.69,5.25-3.75,0-2.14-1.79-2.71-8.89-4.73-6.52-1.85-13.97-3.64-13.97-11.95,0-9.53,8.14-13.62,16.63-13.62,8.95,0,16.86,3.41,17.2,13.45h-12.01c.23-1.56-.46-2.6-1.5-3.29-1.04-.75-2.48-1.04-3.75-1.04-1.73,0-4.56,.46-4.56,2.77,.23,2.94,6.12,3.58,11.95,5.2s11.6,4.33,11.6,11.89c0,10.74-9.87,14.2-19.05,14.2-4.68,0-18.01-1.67-18.13-14.84h12.7Z"/>
      <path class="cls-1" d="M166.51,110.49l-9.47,8.47v-25.91h0s0-.07,0-.11c0-.52-.04-1.02-.1-1.51l-1.69-.89-5.41-2.84-5.4,2.84-1.42,.75c-.08,.53-.11,1.08-.11,1.65,0,.04,0,.07,0,.11h0v25.91l-9.47-8.47c-.88,0-1.68,.53-2.01,1.34-.11,.27-.16,.55-.16,.83,0,.57,.22,1.12,.64,1.54l16.54,17.74c.41,.41,.96,.64,1.54,.64s1.14-.23,1.54-.64l16.54-17.74c.62-.62,.81-1.56,.47-2.37-.34-.81-1.13-1.34-2.01-1.34Z"/>
    </g>
  </g>
</svg>