<?xml version="1.0" encoding="UTF-8"?>
<svg xmlns="http://www.w3.org/2000/svg" width="5.26in" height="2.76in" viewBox="0 0 379 199">
  <defs>
    <style>
      .cls-1, .cls-2 {
        fill: #fff;
      }

      .cls-3 {
        fill: #1c1c1a;
      }

      .cls-2 {
        stroke: #1c1c1a;
        stroke-miterlimit: 10;
        stroke-width: 1.39px;
      }
    </style>
  </defs>
  <g id="Layer_1" data-name="Layer 1">
    <g id="layer4">
      <rect id="rect8793" class="cls-1" x="0" y="0" width="379" height="199"/>
      <rect id="rect8767" class="cls-3" y="183" width="379" height="16"/>
      <rect id="rect8771" class="cls-3" y="151" width="379" height="16"/>
      <rect id="rect8775" class="cls-3" y="120" width="379" height="15"/>
      <rect id="rect8779" class="cls-3" y="90" width="379" height="15"/>
      <rect id="rect8783" class="cls-3" y="60" width="379" height="15"/>
      <rect id="rect8787" class="cls-3" y="30" width="379" height="15"/>
      <rect id="rect8793-2" data-name="rect8793" class="cls-3" y="0" width="379" height="15"/>
    </g>
    <g id="layer5">
      <rect id="rect8796" class="cls-3" x="227" y="0" width="152" height="105"/>
    </g>
    <g>
      <circle class="cls-3" cx="303.65" cy="52.57" r="52.17"/>
      <path class="cls-2" d="M345.63,52.61c0-.58,.47-1.05,1.05-1.05h4.59c-.18-7.95-2.3-15.42-5.91-21.96l-3.92,2.26c-.16,.1-.34,.14-.52,.14-.36,0-.71-.19-.91-.52-.29-.5-.12-1.14,.38-1.43l3.92-2.26c-3.95-6.46-9.4-11.9-15.87-15.85l-2.28,3.95c-.19,.34-.54,.52-.91,.52-.18,0-.36-.05-.52-.14-.5-.29-.67-.93-.38-1.43l2.28-3.95c-6.6-3.64-14.16-5.76-22.2-5.89v4.6c0,.58-.47,1.05-1.05,1.05s-1.05-.47-1.05-1.05V5.03c-7.88,.21-15.29,2.33-21.77,5.92l2.25,3.91c.29,.5,.12,1.14-.38,1.43-.16,.1-.34,.14-.52,.14-.36,0-.71-.19-.91-.52l-2.25-3.9c-6.53,4.01-12.02,9.54-15.97,16.11,.02,.01,.05,.02,.07,.03l4.03,2.33c.5,.29,.67,.93,.38,1.43-.19,.34-.54,.52-.91,.52-.18,0-.36-.05-.52-.14l-4.03-2.33s-.04-.03-.06-.04c-3.51,6.46-5.56,13.83-5.74,21.66h4.59c.58,0,1.05,.47,1.05,1.05s-.47,1.05-1.05,1.05h-4.59c.16,7.88,2.23,15.3,5.77,21.79,0,0,.02-.01,.03-.02l4.03-2.33c.5-.29,1.14-.12,1.43,.38,.29,.5,.12,1.14-.38,1.43l-4.03,2.33s-.02,0-.04,.01c3.99,6.61,9.55,12.18,16.16,16.18h0l2.33-4.04c.29-.5,.93-.67,1.43-.38,.5,.29,.67,.93,.38,1.43l-2.33,4.03c6.43,3.52,13.75,5.58,21.54,5.79v-4.59c0-.58,.47-1.05,1.05-1.05s1.05,.47,1.05,1.05v4.6c7.95-.13,15.44-2.19,21.98-5.76-.01-.02-.02-.03-.03-.04l-2.33-4.03c-.29-.5-.12-1.14,.38-1.43,.5-.29,1.14-.12,1.43,.38l2.33,4.03s.02,.04,.02,.05c6.54-3.95,12.06-9.42,16.06-15.93l-3.88-2.24c-.5-.29-.67-.93-.38-1.43s.93-.67,1.43-.38l3.89,2.24c3.65-6.57,5.78-14.09,5.95-22.1h-4.59c-.58,0-1.05-.47-1.05-1.05Z"/>
      <polygon class="cls-3" points="307.22 56.64 308.15 62.03 308.15 62.03 308.15 62.03 303.3 59.49 298.46 62.03 299.39 56.64 295.47 52.82 295.47 52.82 295.47 52.82 300.88 52.04 303.3 47.13 305.72 52.04 311.14 52.82 307.22 56.64"/>
      <path class="cls-3" d="M287.59,62.85c-1.78,2.41-4.54,3.44-7.37,3.44-7.66,0-12.37-6.26-12.37-14.02,0-10.39,6.93-14.55,12.77-14.55,6.6,0,10.78,3.78,11.94,10.2h-7.66c-.29-1.99-1.89-3.4-3.77-3.4-5.48,0-5.3,6.07-5.3,7.94,0,2.56,.98,7.03,5.84,7.03,1.85,0,3.74-.99,4.14-3.02h-3.52v-5.84h10.6v15.01h-5.04l-.25-2.79Z"/>
      <path class="cls-3" d="M299.46,34.5l-9.59-17.23h9.28l4.55,10.05,4.74-10.05h9.21l-9.78,17.23v10.05h-8.4v-10.05Z"/>
      <path class="cls-3" d="M322.6,56.47c0,.69,.11,1.3,.31,1.8,.61,1.64,2.44,1.99,4.01,1.99,1.38,0,3.48-.46,3.48-2.48,0-1.41-1.18-1.8-5.88-3.13-4.32-1.22-9.24-2.41-9.24-7.91,0-6.3,5.39-9.01,11-9.01,5.92,0,11.15,2.25,11.38,8.9h-7.95c.15-1.03-.31-1.72-.99-2.18-.69-.5-1.64-.69-2.48-.69-1.15,0-3.02,.31-3.02,1.83,.15,1.95,4.05,2.37,7.91,3.44s7.68,2.86,7.68,7.87c0,7.1-6.53,9.4-12.61,9.4-3.09,0-11.92-1.11-11.99-9.82h8.4Z"/>
      <path class="cls-3" d="M314.33,77.61l-6.27,5.6v-16.64h0s0-.05,0-.07c0-.34-.02-.67-.07-1l-1.12-.59-3.58-1.88-3.58,1.88-.94,.49c-.05,.35-.08,.72-.08,1.09,0,.02,0,.05,0,.07h0v16.64l-6.27-5.6c-.58,0-1.11,.35-1.33,.89-.07,.18-.11,.37-.11,.55,0,.37,.14,.74,.42,1.02l10.94,11.74c.27,.27,.64,.42,1.02,.42s.75-.16,1.02-.42l10.94-11.74c.41-.41,.54-1.03,.31-1.57-.22-.54-.75-.89-1.33-.89Z"/>
    </g>
  </g>
  <g id="Layer_2" data-name="Layer 2"/>
  <g id="Layer_3" data-name="Layer 3"/>
</svg>