<?xml version="1.0" encoding="UTF-8"?>
<svg xmlns="http://www.w3.org/2000/svg" width="4.63in" height="4.63in" viewBox="0 0 333.23 333.23">
  <defs>
    <style>
      .cls-1 {
        fill: #1c1c1a;
      }

      .cls-2 {
        fill: #fff;
        stroke: #1c1c1a;
        stroke-miterlimit: 10;
        stroke-width: 4.45px;
      }
    </style>
  </defs>
  <g id="Layer_1" data-name="Layer 1"/>
  <g id="Layer_2" data-name="Layer 2">
    <g>
      <circle class="cls-1" cx="166.61" cy="166.61" r="166.61"/>
      <path class="cls-2" d="M300.72,166.73c0-1.84,1.49-3.34,3.34-3.34h14.67c-.57-25.4-7.33-49.26-18.88-70.12l-12.53,7.23c-.53,.3-1.1,.45-1.67,.45-1.15,0-2.28-.6-2.89-1.67-.92-1.6-.38-3.64,1.22-4.56l12.52-7.23c-12.63-20.63-30.03-38.01-50.68-50.62l-7.29,12.62c-.62,1.07-1.74,1.67-2.89,1.67-.57,0-1.14-.14-1.67-.45-1.6-.92-2.14-2.96-1.22-4.56l7.29-12.62c-21.08-11.64-45.22-18.39-70.91-18.81v14.69c0,1.84-1.49,3.34-3.34,3.34s-3.34-1.49-3.34-3.34V14.77c-25.18,.68-48.83,7.44-69.52,18.92l7.2,12.47c.92,1.6,.37,3.64-1.22,4.56-.53,.3-1.1,.45-1.67,.45-1.15,0-2.28-.6-2.89-1.67l-7.19-12.46c-20.86,12.79-38.39,30.47-51.02,51.44,.08,.04,.15,.06,.23,.1l12.89,7.44c1.6,.92,2.14,2.96,1.22,4.56-.62,1.07-1.74,1.67-2.89,1.67-.57,0-1.14-.14-1.67-.45l-12.89-7.44c-.07-.04-.13-.09-.19-.14-11.23,20.63-17.77,44.16-18.33,69.17h14.67c1.84,0,3.34,1.49,3.34,3.34s-1.49,3.34-3.34,3.34H14.5c.52,25.18,7.12,48.86,18.44,69.6,.03-.02,.06-.05,.09-.06l12.89-7.44c1.6-.92,3.64-.37,4.56,1.22,.92,1.6,.37,3.64-1.22,4.56l-12.89,7.44s-.08,.03-.11,.05c12.76,21.12,30.5,38.89,51.61,51.68h0l7.44-12.9c.92-1.59,2.96-2.14,4.56-1.22,1.6,.92,2.14,2.96,1.22,4.56l-7.44,12.89c20.52,11.23,43.92,17.84,68.81,18.51v-14.65c0-1.84,1.49-3.34,3.34-3.34s3.34,1.49,3.34,3.34v14.69c25.4-.41,49.3-7.01,70.21-18.41-.03-.05-.08-.09-.11-.14l-7.44-12.89c-.92-1.6-.38-3.64,1.22-4.56,1.59-.92,3.64-.38,4.56,1.22l7.44,12.89c.03,.05,.05,.11,.08,.17,20.9-12.6,38.51-30.08,51.28-50.87l-12.4-7.16c-1.6-.92-2.14-2.96-1.22-4.56s2.97-2.14,4.56-1.22l12.42,7.17c11.65-20.98,18.47-45,19-70.57h-14.67c-1.84,0-3.34-1.49-3.34-3.34Z"/>
      <polygon class="cls-1" points="178.04 179.6 180.99 196.82 180.99 196.82 180.99 196.82 165.52 188.69 150.06 196.82 153.01 179.6 140.5 167.41 140.5 167.41 140.5 167.41 157.79 164.89 165.52 149.22 173.25 164.89 190.55 167.4 178.04 179.6"/>
      <path class="cls-1" d="M115.34,199.43c-5.68,7.69-14.49,10.98-23.52,10.98-24.45,0-39.52-20.01-39.52-44.77,0-33.18,22.13-46.48,40.79-46.48,21.09,0,34.42,12.08,38.13,32.57h-24.45c-.93-6.34-6.03-10.86-12.05-10.86-17.5,0-16.92,19.4-16.92,25.37,0,8.17,3.13,22.45,18.66,22.45,5.91,0,11.94-3.17,13.21-9.64h-11.24v-18.67h33.84v47.94h-16.11l-.81-8.91Z"/>
      <path class="cls-1" d="M153.25,108.88l-30.62-55.02h29.64l14.52,32.08,15.13-32.08h29.4l-31.23,55.02v32.08h-26.84v-32.08Z"/>
      <path class="cls-1" d="M227.16,179.05c0,2.2,.37,4.15,.98,5.73,1.95,5.25,7.81,6.34,12.81,6.34,4.39,0,11.1-1.46,11.1-7.93,0-4.51-3.78-5.73-18.79-10-13.79-3.9-29.52-7.69-29.52-25.25,0-20.13,17.2-28.79,35.13-28.79,18.91,0,35.62,7.2,36.36,28.42h-25.38c.49-3.29-.98-5.49-3.17-6.95-2.2-1.59-5.24-2.2-7.93-2.2-3.66,0-9.64,.98-9.64,5.86,.49,6.22,12.93,7.56,25.25,10.98,12.32,3.42,24.52,9.15,24.52,25.13,0,22.69-20.86,30.01-40.26,30.01-9.88,0-38.06-3.54-38.31-31.35h26.84Z"/>
      <path class="cls-1" d="M200.74,246.57l-20.01,17.9v-53.15h-.01c0-.08,.01-.15,.01-.23,0-1.09-.08-2.15-.21-3.18l-3.57-1.87-11.42-6-11.42,6.01-3,1.58c-.16,1.12-.24,2.29-.24,3.48,0,.08,.01,.15,.01,.23h-.01v53.15l-20.01-17.9c-1.86,0-3.54,1.12-4.25,2.84-.23,.57-.34,1.17-.34,1.76,0,1.2,.46,2.37,1.34,3.25l34.94,37.49c.86,.86,2.04,1.35,3.25,1.35s2.4-.5,3.25-1.35l34.94-37.49c1.32-1.31,1.71-3.29,1-5.01-.71-1.72-2.39-2.84-4.25-2.84Z"/>
    </g>
  </g>
</svg>